<?xml version="1.0" encoding="UTF-8" standalone="no"?>
<svg
   width="20"
   height="20"
   viewBox="880 360 240 260"
   version="1.1"
   id="svg11"
   xml:space="preserve"
   xmlns="http://www.w3.org/2000/svg"
   xmlns:svg="http://www.w3.org/2000/svg"><defs
     id="defs11"><rect
       x="0.40868455"
       y="0.40868455"
       width="19.054917"
       height="29.7318"
       id="rect2" /><rect
       x="0.86845466"
       y="0.30651341"
       width="18.288633"
       height="19.310345"
       id="rect1" /></defs><path
     style="font-size:24px;font-family:Montserrat;-inkscape-font-specification:Montserrat;text-align:center;letter-spacing:2px;text-anchor:middle;white-space:pre;stroke-width:1.1742;stroke-linecap:round;stroke-linejoin:round;stroke-miterlimit:30.6;fill:#000000;fill-opacity:1;stroke:none"
     d="m 9.9235496,22.610448 q -1.872,0 -3.6,-0.6 -1.704,-0.624 -2.64,-1.584 l 0.696,-1.368 q 0.888,0.864 2.376,1.464 1.512,0.576 3.168,0.576 1.5840004,0 2.5680004,-0.384 1.008,-0.408 1.464,-1.08 0.48,-0.672 0.48,-1.488 0,-0.984 -0.576,-1.584 -0.552,-0.6 -1.464,-0.936 -0.912,-0.36 -2.016,-0.624 -1.1040004,-0.264 -2.2080004,-0.552 -1.104,-0.312 -2.04,-0.816 -0.912,-0.504 -1.488,-1.32 -0.552,-0.84 -0.552,-2.184 0,-1.2480004 0.648,-2.2800004 0.672,-1.056 2.04,-1.68 1.368,-0.648 3.5040004,-0.648 1.416,0 2.808,0.408 1.392,0.384 2.4,1.08 l -0.6,1.416 q -1.08,-0.72 -2.304,-1.056 -1.2,-0.336 -2.328,-0.336 -1.5120004,0 -2.4960004,0.408 -0.984,0.408 -1.464,1.104 -0.456,0.672 -0.456,1.5360004 0,0.984 0.552,1.584 0.576,0.6 1.488,0.936 0.936,0.336 2.04,0.6 1.1040004,0.264 2.1840004,0.576 1.104,0.312 2.016,0.816 0.936,0.48 1.488,1.296 0.576,0.816 0.576,2.136 0,1.224 -0.672,2.28 -0.672,1.032 -2.064,1.68 -1.368,0.624 -3.5280004,0.624 z"
     id="text1"
     transform="matrix(9.964219,0,0,9.964219,895.65336,352.23009)"
     aria-label="S" /><path
     style="fill:none;fill-opacity:1;stroke:#000000;stroke-width:11.7;stroke-linecap:round;stroke-linejoin:round;stroke-miterlimit:30.6;stroke-dasharray:none;stroke-opacity:1"
     d="M 1015.5755,394.75028 V 595.73839"
     id="path5" /><path
     style="fill:none;fill-opacity:1;stroke:#000000;stroke-width:11.7;stroke-linecap:round;stroke-linejoin:round;stroke-miterlimit:30.6;stroke-dasharray:none;stroke-opacity:1"
     d="M 979.88602,394.75028 V 595.73839"
     id="path6" /></svg>
