<svg width="20" height="20" viewBox="880 360 240 260" xmlns="http://www.w3.org/2000/svg">
  <circle
     style="fill:none;stroke:currentColor;stroke-width:11.7;stroke-linejoin:round;stroke-miterlimit:30"
     cx="999.60913"
     cy="493.36594"
     r="41.324657" />
  <path
     style="fill:none;stroke:currentColor;stroke-width:11.7;stroke-linejoin:round;stroke-miterlimit:30"
     d="m 1019.6444,600.49369 h -39.9159 l -3.6089,-25.79506 c -6.0205,-0.79455 -11.9644,-3.26748 -16.88726,-6.90629 l -20.57337,15.43003 -28.22478,-28.22479 15.68798,-20.79173 c -3.69531,-4.81897 -6.14965,-10.77057 -7.05762,-16.82458 l -25.45824,-3.63689 V 473.8285 l 25.79506,-3.6089 c 0.79455,-6.0205 3.26748,-11.9644 6.90629,-16.88726 l -15.43003,-20.57337 28.22479,-28.22478 20.79173,15.68798 c 4.81897,-3.69531 10.77057,-6.14965 16.82458,-7.05762 l 3.63689,-25.45824 h 39.91588 l 3.6089,25.79506 c 6.0205,0.79455 11.9644,3.26748 16.8873,6.90629 l 20.5733,-15.43003 28.2248,28.22479 -15.688,20.79173 c 3.6953,4.81897 6.1497,10.77057 7.0576,16.82458 l 25.4583,3.63689 v 39.91588 l -25.7951,3.6089 c -0.7945,6.0205 -3.2674,11.9644 -6.9063,16.88726 l 15.4301,20.57337 -28.2248,28.22478 -20.7918,-15.68798 c -4.8189,3.69531 -10.7705,6.14965 -16.8245,7.05762 z" />
</svg>