<?xml version="1.0" encoding="UTF-8" standalone="no"?>
<svg
   width="20"
   height="20"
   viewBox="880 360 240 260"
   version="1.1"
   id="svg11"
   xml:space="preserve"
   xmlns="http://www.w3.org/2000/svg"
   xmlns:svg="http://www.w3.org/2000/svg"><defs
     id="defs11"><filter
       id="mask-powermask-path-effect34_inverse"
       style="color-interpolation-filters:sRGB"
       height="100"
       width="100"
       x="-50"
       y="-50"><feColorMatrix
         id="mask-powermask-path-effect34_primitive1"
         values="1"
         type="saturate"
         result="fbSourceGraphic" /><feColorMatrix
         id="mask-powermask-path-effect34_primitive2"
         values="-1 0 0 0 1 0 -1 0 0 1 0 0 -1 0 1 0 0 0 1 0 "
         in="fbSourceGraphic" /></filter></defs><path
     id="circle53"
     style="display:inline;fill:none;stroke:#000000;stroke-width:11.7;stroke-linecap:round;stroke-miterlimit:30.6;stroke-dasharray:none"
     d="m 1036.9227,428.47726 c 0,28.44402 -23.0584,51.50246 -51.50251,51.50246 -28.44404,2e-5 -51.50249,-23.05843 -51.50249,-51.50246 -10e-6,-28.44405 23.05844,-51.5025 51.50249,-51.50249 28.44411,0 51.50251,23.05845 51.50251,51.50249 z" /><path
     id="path13"
     style="baseline-shift:baseline;display:inline;overflow:visible;opacity:1;vector-effect:none;stroke-linecap:round;stroke-miterlimit:30.6;enable-background:accumulate;stop-color:#000000;stop-opacity:1;stroke:none;fill:#000000;fill-opacity:1"
     d="m 1091.9395,571.45312 c 0.044,-0.0985 0.089,-0.19034 0.1269,-0.27929 0.482,-1.12544 0.5413,-1.74521 0.6094,-2.38672 0.1362,-1.28303 0.092,-2.45838 -0.025,-3.88477 -0.2354,-2.85277 -0.8716,-6.53725 -2.0059,-10.94336 -0.526,-2.04324 -1.1417,-4.24409 -1.9043,-6.55078 l -9.4199,9.39453 v 0.0254 0.0254 c 0.2448,0.95069 0.434,1.79541 0.584,2.56445 z" /><path
     id="path11"
     style="baseline-shift:baseline;display:inline;overflow:visible;opacity:1;vector-effect:none;stroke-linecap:round;stroke-miterlimit:30.6;enable-background:accumulate;stop-color:#000000;stop-opacity:1;stroke:none;fill:#000000;fill-opacity:1"
     d="m 983.39453,475.60352 c -46.02917,0.33363 -74.43374,23.05774 -89.62891,46.00781 -7.59757,11.47503 -12.04196,22.95247 -14.16796,32.06836 -1.063,4.55795 -1.55513,8.49128 -1.49805,11.83203 0.0285,1.67037 0.16627,3.18794 0.66016,4.79883 0.49389,1.6109 1.37793,3.84775 4.24023,5.1289 l 1.14258,0.53321 98.33789,-0.50782 28.69143,-0.15234 11.7558,-11.73047 -40.49801,0.17774 -92.57422,0.48242 c 0.0671,-1.94373 0.37373,-4.59979 1.14258,-7.89649 1.79616,-7.70158 5.75748,-18.07502 12.51757,-28.28515 13.52019,-20.42024 37.66655,-40.44545 79.95508,-40.75196 41.7405,-0.30253 65.6436,17.07613 79.7266,36.00391 l 8.3281,-8.32813 c -16.1765,-20.77637 -43.9633,-39.70098 -88.13087,-39.38085 z" /><path
     style="display:inline;fill:none;stroke:#000000;stroke-width:11.7;stroke-linecap:round;stroke-linejoin:round;stroke-miterlimit:30.6;stroke-dasharray:none"
     d="m 1012.6457,516.98117 81.6875,81.6875"
     id="path1" /><path
     style="display:inline;fill:none;stroke:#000000;stroke-width:11.7;stroke-linecap:round;stroke-linejoin:round;stroke-miterlimit:30.6;stroke-dasharray:none"
     d="m 1094.3332,516.98117 -81.6875,81.6875"
     id="path2"
     transform="translate(-1.0000001e-6)" /></svg>
