<?xml version="1.0" encoding="UTF-8" standalone="no"?>
<svg
   width="20"
   height="20"
   viewBox="880 360 240 260"
   version="1.1"
   id="svg11"
   xml:space="preserve"
   xmlns="http://www.w3.org/2000/svg"
   xmlns:svg="http://www.w3.org/2000/svg"><defs
     id="defs11"><filter
       id="mask-powermask-path-effect34_inverse"
       style="color-interpolation-filters:sRGB"
       height="100"
       width="100"
       x="-50"
       y="-50"><feColorMatrix
         id="mask-powermask-path-effect34_primitive1"
         values="1"
         type="saturate"
         result="fbSourceGraphic" /><feColorMatrix
         id="mask-powermask-path-effect34_primitive2"
         values="-1 0 0 0 1 0 -1 0 0 1 0 0 -1 0 1 0 0 0 1 0 "
         in="fbSourceGraphic" /></filter></defs><path
     id="path51"
     style="display:inline;fill:none;stroke:#000000;stroke-width:11.7;stroke-linecap:round;stroke-miterlimit:30.6"
     d="m 1078.0027,538.09844 a 24.419115,24.419115 0 0 1 -24.4191,24.41911 24.419115,24.419115 0 0 1 -24.4191,-24.41911 24.419115,24.419115 0 0 1 24.4191,-24.41912 24.419115,24.419115 0 0 1 24.4191,24.41912 z" /><path
     id="path52"
     style="display:inline;fill:none;stroke:#000000;stroke-width:11.7;stroke-linecap:round;stroke-miterlimit:30.6;stroke-opacity:1"
     d="m 1101.4826,604.78139 -49.3078,0.23479 -46.0207,0.2348 c -3.3537,-1.50109 4.6158,-41.72554 46.4903,-42.02905 44.7794,-0.32456 50.3664,41.64936 48.8382,41.55946 z" /><path
     id="circle53"
     style="display:inline;fill:none;stroke:#000000;stroke-width:10.1675;stroke-linecap:round;stroke-miterlimit:30.6"
     d="m 1029.5579,494.46848 a 21.220708,21.220708 0 0 1 -21.2207,21.2207 21.220708,21.220708 0 0 1 -21.22084,-21.2207 21.220708,21.220708 0 0 1 21.22084,-21.22071 21.220708,21.220708 0 0 1 21.2207,21.22071 z" /><path
     id="path11"
     style="baseline-shift:baseline;display:inline;overflow:visible;vector-effect:none;stroke-linecap:round;stroke-miterlimit:30.6;enable-background:accumulate;stop-color:#000000;stop-opacity:1;opacity:1"
     d="M 1032.6523 517.19336 C 1026.0455 513.5444 1017.7327 511.15232 1007.4902 511.22656 C 987.66993 511.37021 974.98153 521.3271 968.33789 531.36133 C 965.01607 536.37844 963.09393 541.37391 962.14258 545.45312 C 961.6669 547.49273 961.40252 549.28424 961.43164 550.98828 C 961.44624 551.84029 961.52017 552.66869 961.83789 553.70508 C 962.15565 554.74147 962.75174 556.43998 965.03711 557.46289 L 966.05273 557.91992 L 1007.1348 557.7168 L 1031.332 557.58984 C 1028.7605 554.65879 1026.7558 551.23048 1025.4922 547.45898 L 1007.084 547.53516 L 972.04492 547.71289 C 972.71412 544.86506 974.23545 540.87376 976.81836 536.97266 C 982.00641 529.13689 990.99681 521.5029 1007.5664 521.38281 C 1015.6668 521.3241 1021.9212 522.90858 1026.8379 525.39453 C 1028.3022 522.33486 1030.279 519.56816 1032.6523 517.19336 z " /><path
     id="path1"
     style="display:inline;fill:none;stroke:#000000;stroke-width:10.1675;stroke-linecap:round;stroke-miterlimit:30.6"
     d="m 1121.1672,493.89136 a 21.220708,21.220708 0 0 1 -21.2208,21.2207 21.220708,21.220708 0 0 1 -21.2207,-21.2207 21.220708,21.220708 0 0 1 21.2207,-21.22072 21.220708,21.220708 0 0 1 21.2208,21.22072 z" /><path
     id="path8"
     style="baseline-shift:baseline;display:inline;overflow:visible;vector-effect:none;stroke-linecap:round;stroke-miterlimit:30.6;enable-background:accumulate;stop-color:#000000;stop-opacity:1;opacity:1"
     d="M 1076.1465 557.23437 L 1098.7441 557.13281 L 1141.5527 556.92969 L 1141.5781 556.92969 L 1141.6035 556.92969 C 1142.9637 556.90221 1144.3536 556.20887 1145.082 555.5332 C 1145.8683 554.80383 1146.158 554.20787 1146.3516 553.75586 C 1146.7388 552.85185 1146.7649 552.39026 1146.8086 551.97852 C 1146.8956 551.15504 1146.8442 550.56199 1146.7832 549.87109 C 1146.6692 548.4893 1146.3943 546.86109 1145.8945 544.91992 C 1144.8949 541.0376 1143.0164 536.02106 1139.6992 530.92969 C 1133.0647 520.74694 1120.1465 510.49004 1099.0996 510.64258 C 1089.1095 510.71499 1080.9231 513.27653 1074.4199 517.0918 C 1076.8055 519.45951 1078.8081 522.23631 1080.2852 525.29297 C 1085.1398 522.62461 1091.2993 520.85592 1099.1758 520.79883 C 1117.0431 520.66933 1126.0037 528.52492 1131.1934 536.49023 C 1133.6166 540.20937 1135.0151 543.90477 1135.8145 546.77344 L 1098.6934 546.95117 L 1081.8086 547.02734 C 1080.603 550.81695 1078.6689 554.2689 1076.1465 557.23437 z " /><path
     id="path12"
     style="display:inline;fill:none;stroke:#000000;stroke-width:9.01812;stroke-linecap:round;stroke-miterlimit:30.6"
     d="m 962.29064,418.3342 a 18.821748,18.821748 0 0 1 -18.82173,18.82175 18.821748,18.821748 0 0 1 -18.82174,-18.82175 18.821748,18.821748 0 0 1 18.82174,-18.82175 18.821748,18.821748 0 0 1 18.82173,18.82175 z" /><path
     id="path13"
     style="display:inline;fill:none;stroke:#000000;stroke-width:9.01812;stroke-linecap:round;stroke-miterlimit:30.6;stroke-opacity:1"
     d="m 980.38846,469.73204 -38.00543,0.18097 -35.4718,0.18098 c -2.58496,-1.15701 3.55776,-32.16118 35.83376,-32.39512 34.51503,-0.25017 38.82138,32.10246 37.64347,32.03317 z" /><path
     id="path14"
     style="display:inline;fill:none;stroke:#000000;stroke-width:7.8369;stroke-linecap:round;stroke-miterlimit:30.6"
     d="m 924.95039,384.70513 a 16.356482,16.356482 0 0 1 -16.35647,16.35648 16.356482,16.356482 0 0 1 -16.35659,-16.35648 16.356482,16.356482 0 0 1 16.35659,-16.35648 16.356482,16.356482 0 0 1 16.35647,16.35648 z" /><path
     id="path15"
     style="baseline-shift:baseline;display:inline;overflow:visible;opacity:1;vector-effect:none;stroke-width:0.770779;stroke-linecap:round;stroke-miterlimit:30.6;enable-background:accumulate;stop-color:#000000;stop-opacity:1"
     d="m 927.33549,402.221 c -5.09238,-2.81254 -11.49972,-4.65631 -19.39442,-4.59909 -15.27706,0.11073 -25.05701,7.78529 -30.17779,15.51947 -2.56039,3.86708 -4.04194,7.71749 -4.77522,10.86166 -0.36664,1.57209 -0.57042,2.95294 -0.54798,4.26638 0.0113,0.65672 0.0682,1.29523 0.31313,2.09406 0.24493,0.79882 0.70438,2.108 2.4659,2.89644 l 0.78281,0.35227 31.66521,-0.15656 18.6507,-0.0979 c -1.98206,-2.25919 -3.52724,-4.90166 -4.50119,-7.80866 l -14.18866,0.0587 -27.0074,0.13699 c 0.51581,-2.19505 1.68842,-5.27146 3.67927,-8.27835 3.99884,-6.03965 10.92845,-11.92377 23.69995,-12.01633 6.24362,-0.0452 11.06438,1.17603 14.85407,3.09215 1.12866,-2.35833 2.65233,-4.49085 4.48162,-6.3213 z" /><path
     id="path16"
     style="display:inline;fill:none;stroke:#000000;stroke-width:7.8369;stroke-linecap:round;stroke-miterlimit:30.6"
     d="m 995.56093,384.2603 a 16.356482,16.356482 0 0 1 -16.35654,16.35648 16.356482,16.356482 0 0 1 -16.35648,-16.35648 16.356482,16.356482 0 0 1 16.35648,-16.35649 16.356482,16.356482 0 0 1 16.35654,16.35649 z" /><path
     id="path17"
     style="baseline-shift:baseline;display:inline;overflow:visible;opacity:1;vector-effect:none;stroke-width:0.770779;stroke-linecap:round;stroke-miterlimit:30.6;enable-background:accumulate;stop-color:#000000;stop-opacity:1"
     d="m 960.85992,433.08378 17.41776,-0.0783 32.99592,-0.15656 h 0.019 0.019 c 1.0484,-0.0212 2.1197,-0.55559 2.6811,-1.07639 0.6061,-0.56218 0.8294,-1.02153 0.9786,-1.36993 0.2984,-0.6968 0.3186,-1.05258 0.3522,-1.36994 0.067,-0.63472 0.028,-1.09183 -0.019,-1.62436 -0.088,-1.06506 -0.2998,-2.32005 -0.685,-3.81626 -0.7705,-2.99241 -2.2184,-6.85906 -4.7752,-10.78338 -5.1138,-7.84865 -15.07077,-15.75446 -31.29331,-15.63689 -7.70017,0.0558 -14.01007,2.0302 -19.0226,4.97093 1.83877,1.82498 3.38233,3.96528 4.52085,6.32129 3.74182,-2.05672 8.48944,-3.41999 14.56048,-3.46399 13.77171,-0.0998 20.67841,5.95511 24.67848,12.09461 1.8677,2.86663 2.9457,5.71497 3.5618,7.92608 l -28.6121,0.13699 -13.01446,0.0587 c -0.92925,2.92095 -2.42001,5.58164 -4.36423,7.86736 z" /></svg>
