<svg width="44.2rem" height="22.8rem" viewBox="0 0 186.44 96.312" xmlns="http://www.w3.org/2000/svg" style="width: auto; height: 6rem; background: transparent; display: block;">
  <text transform="matrix(.47482 0 0 .47482 10.627 45.261)" x="0.5575586" fill="hsl(0, 0%, 20%)" font-family="Montserrat" font-size="5.989rem" font-weight="900" letter-spacing="1.1145px" style="paint-order:stroke fill markers;white-space:pre" xml:space="preserve"><tspan x="0" y="0">Roster</tspan></text>
  <text transform="matrix(.47482 0 0 .47482 48.217 82.589)" x="0.5575586" fill="hsl(0, 0%, 20%)" font-family="Montserrat" font-size="5.989rem" font-weight="900" letter-spacing="1.1145px" style="paint-order:stroke fill markers;white-space:pre" xml:space="preserve"><tspan x="0" y="0">Work</tspan></text>
  <path transform="translate(-28.744 -96.881)" d="m56.266 149.13-0.07813 0.87695c-0.18253-6e-3 -0.35164-0.0742-0.53516-0.0742-8.8247 0-16 7.1753-16 16s7.1753 16 16 16c1.4213 0 2.8357-0.18873 4.207-0.5625l0.96484-0.26367-0.20703-0.75977c6.4849-2.0433 11.23-8.039 11.23-15.191 0-8.2793-6.3387-15.206-14.586-15.938zm-0.61328 2.8027c5.1907 0 9.9513 2.8682 12.377 7.457l0.4668 0.88477 0.39258-0.20899c0.61644 1.5811 0.95898 3.2973 0.95898 5.0898 0 7.7439-6.2561 14-14 14-2.2298 0-4.4278-0.53194-6.4102-1.5527l-0.88867-0.45898-0.32031 0.62304c-3.9407-2.4744-6.5762-6.8279-6.5762-11.834 0-7.7439 6.2561-14 14-14z" fill="hsl(0, 0%, 20%)"/>
  <path transform="translate(-28.744 -96.881)" d="m54.578 174.78c-2.1353 0.12561-3.9811 0.86784-5.3291 1.6784-1.309 0.78704-2.0007 1.5181-2.0007 1.5181s0.91427-0.42068 2.305-0.83269c1.4894-0.44124 3.1536-0.75204 5.1126-0.86635 0.27709-0.0162 0.55512-0.0244 0.83378-0.0244s0.55669 8e-3 0.83378 0.0244c1.959 0.11431 3.6232 0.42511 5.1126 0.86635 1.3907 0.41201 2.305 0.83269 2.305 0.83269s-0.69176-0.73107-2.0007-1.5181c-1.348-0.81052-3.1939-1.5528-5.3291-1.6784-0.30626-0.018-0.61356-0.027-0.92153-0.027s-0.61528 9e-3 -0.92153 0.027z" fill="hsl(0, 0%, 20%)"/>
  <path transform="translate(-28.744 -96.881)" d="m55.5 173.25c3.2731-0.036 5.5355-2.3354 6.4385-4.319 0.91433-2.0086 0.56136-3.431 0.56136-3.431s-0.07144 1.4433-1.209 3.0647c-1.1386 1.623-3.3002 3.2203-5.7909 3.1853h-1.04e-4c-3.4607 0-6.25-2.7893-6.25-6.25s2.7893-6.25 6.25-6.25 6.25 2.7893 6.25 6.25h1.5c-1e-6 -4.2797-3.4703-7.75-7.75-7.75s-7.75 3.4703-7.75 7.75 3.4703 7.75 7.75 7.75h1.28e-4z" fill="hsl(0, 0%, 20%)"/>
  <path transform="matrix(-1 0 0 1.011 126.73 -93.448)" d="m81.716 140.03c0-7.9133-1.25-39.566-1.25-39.566s-1.25 31.653-1.25 39.566 1.25 39.566 1.25 39.566 1.25-31.653 1.25-39.566z" fill="hsl(0, 0%, 20%)"/>
  <path transform="matrix(0 -1 -1.011 0 187.83 128.59)" d="m81.716 140.03c0-7.9133-1.25-39.566-1.25-39.566s-1.25 31.653-1.25 39.566 1.25 39.566 1.25 39.566 1.25-31.653 1.25-39.566z" fill="hsl(0, 0%, 20%)"/>
  <path transform="matrix(3.0334 0 0 3.0334 -273.49 -302.39)" d="m106.72 99.685-0.0801 0.89846c-0.33654-0.022-0.65204-0.13662-0.99232-0.13662-3.5921 0-6.9002 1.2249-9.5292 3.2795h1.6966c2.2586-1.4504 4.9465-2.2913 7.8326-2.2913 4.343 0 8.3972 1.9395 11.12 5.1902 0.20573-0.12576 0.4306-0.23749 0.67324-0.33543 0.28015-0.11551 0.58229-0.20613 0.9063-0.27308-2.5536-3.4864-6.5369-5.8789-11.135-6.2868zm-11.5 4.8c-0.11152 0.10158-0.22164 0.20477-0.33015 0.30953v1.4111c0.5665-0.62571 1.1868-1.2016 1.8538-1.7206zm-1.0884 1.0945c-2.4725 2.7458-3.978 6.3791-3.978 10.361 0 8.5515 6.9425 15.494 15.494 15.494 1.3764 0 2.7463-0.183 4.0742-0.54497l0.47666-0.13083-0.20119-0.73832c2.3857-0.66817 4.5433-1.8849 6.3204-3.5071l-0.3029-1.0041c-2.6171 2.5733-6.2076 4.1598-10.172 4.1598-2.3102 0-4.5867-0.55184-6.6406-1.6095l-0.43952-0.22657-0.32419 0.62708c-4.3427-2.505-7.2969-7.1414-7.2969-12.52 0-3.3222 1.1142-6.382 2.9897-8.8263zm24.691 1.1238c-0.41292 0.0604-0.77725 0.15738-1.0935 0.2879a0.37915 0.37915 0 0 1-3e-3 8.5e-4c-0.17642 0.0711-0.33702 0.1487-0.48279 0.2322 0.45584 0.6066 0.86743 1.2534 1.229 1.9373l0.23049 0.43764 0.14139-0.0753c-0.0755-0.038-0.14702-0.0872-0.21141-0.15536-0.10025-0.10615-0.16729-0.26854-0.16729-0.41805 0-0.28956 0.21768-0.49356 0.42555-0.60443a0.37915 0.37915 0 0 1 9e-9 -4e-4c0.22056-0.11027 0.46431-0.14622 0.77768-0.15655-0.25813-0.51055-0.54374-1.0051-0.85502-1.4818zm1.1318 2.2366c-0.1221 0-0.12003 0.0157-0.21498 0.0239 0.0315 4e-3 0.0419 0.0112 0.0755 0.0148 0.0809 9e-3 0.16379 0.0183 0.24855 0.0286-0.01-0.0222-0.0194-0.0443-0.0291-0.0664-0.0269-5.7e-4 -0.0534-8.6e-4 -0.0799-8.6e-4zm-0.78431 0.69744c0.22992 0.54732 0.4332 1.1076 0.6034 1.6807 0.19486 0.0297 0.36564 0.0691 0.5189 0.12215 0.12216 0.0366 0.24276 0.0898 0.34651 0.19352 0.10557 0.10558 0.17478 0.27212 0.17478 0.42163 0 0.27659-0.21684 0.52027-0.44088 0.62623-0.08 0.0394-0.16157 0.068-0.24787 0.0888 0.0946 0.50699 0.16153 1.0233 0.19642 1.549 0.36524-0.0443 0.69216-0.11378 0.98091-0.20665-0.10085-1.4984-0.41574-2.942-0.91549-4.2986-0.23186-0.0327-0.44946-0.0598-0.65264-0.0816-0.21109-0.0226-0.39759-0.0529-0.56404-0.0952zm2.1652 5.2574c-0.30497 0.0846-0.63362 0.146-0.98619 0.18552 1.8e-4 0.0277 1.7e-4 0.0555 1.7e-4 0.0833 0 0.34925-0.0122 0.69562-0.0365 1.0387a0.37915 0.37915 0 0 1 0.31601-0.17002h0.68449c0.016-0.28744 0.0242-0.57703 0.0242-0.86864 0-0.0898-6.9e-4 -0.17936-2e-3 -0.26882zm-0.42981 1.8961-1.8133 5.6701 0.13987 0.46166c1.0782-1.8338 1.7862-3.9102 2.0202-6.1318zm-2.711 5.9887c-0.46221 0.74852-0.9906 1.4517-1.577 2.1015l0.31414 1.0414c0.17089-0.17402 0.33762-0.35203 0.50016-0.53389a0.37915 0 0 1 1e-3 -0.22777zm0.49096 0.95349-0.0317 0.099c0.0143-0.0208 0.0285-0.0418 0.0428-0.0627z" fill="hsl(0, 0%, 20%)"/>
</svg>
