<svg width="44.2rem" height="22.8rem" viewBox="0 0 186.44 96.312" xmlns="http://www.w3.org/2000/svg" style="width: auto; height: 6rem; background: transparent; display: block;">
  <defs />
  <g transform="translate(-70.124 -93.261)">
    <path style="baseline-shift:baseline;display:inline;overflow:visible;vector-effect:none;stroke-linecap:square;stroke-linejoin:round;stroke-miterlimit:1;enable-background:accumulate;stop-color:#000000;stop-opacity:1;opacity:1;fill:#000000;fill-opacity:1;stroke:none" d="m 56.265625,149.13477 -0.07813,0.87695 c -0.182529,-0.006 -0.351639,-0.0742 -0.535156,-0.0742 -8.824736,0 -16,7.17526 -16,16 0,8.82474 7.175264,16 16,16 1.42133,0 2.835736,-0.18873 4.207031,-0.5625 l 0.964844,-0.26367 -0.207032,-0.75977 c 6.484919,-2.04327 11.230469,-8.03897 11.230469,-15.1914 0,-8.27932 -6.338699,-15.20579 -14.585937,-15.9375 z m -0.613281,2.80273 c 5.190691,0 9.951287,2.86815 12.376953,7.45703 l 0.466797,0.88477 0.392578,-0.20899 c 0.616442,1.58108 0.958984,3.29726 0.958984,5.08985 0,7.74386 -6.256136,14 -14,14 -2.229767,0 -4.427814,-0.53194 -6.410156,-1.55274 l -0.888672,-0.45898 -0.320312,0.62304 c -3.940683,-2.47439 -6.576172,-6.82794 -6.576172,-11.83398 0,-7.74386 6.256136,-14 14,-14 z" transform="translate(41.38 -3.6201)" />
    <path transform="translate(41.38 -3.6201)" d="m54.578 174.78c-2.1353 0.12561-3.9811 0.86784-5.3291 1.6784-1.309 0.78704-2.0007 1.5181-2.0007 1.5181s0.91427-0.42068 2.305-0.83269c1.4894-0.44124 3.1536-0.75204 5.1126-0.86635 0.27709-0.0162 0.55512-0.0244 0.83378-0.0244s0.55669 8e-3 0.83378 0.0244c1.959 0.11431 3.6232 0.42511 5.1126 0.86635 1.3907 0.41201 2.305 0.83269 2.305 0.83269s-0.69176-0.73107-2.0007-1.5181c-1.348-0.81052-3.1939-1.5528-5.3291-1.6784-0.30626-0.018-0.61356-0.027-0.92153-0.027s-0.61528 9e-3 -0.92153 0.027z" style="stroke:none;stroke-opacity:1;fill:#000000;fill-opacity:1" />
    <path transform="translate(41.38 -3.6201)" d="m55.5 173.25c3.2731-0.036 5.5355-2.3354 6.4385-4.319 0.91433-2.0086 0.56136-3.431 0.56136-3.431s-0.07144 1.4433-1.209 3.0647c-1.1386 1.623-3.3002 3.2203-5.7909 3.1853h-1.04e-4c-3.4607 0-6.25-2.7893-6.25-6.25s2.7893-6.25 6.25-6.25 6.25 2.7893 6.25 6.25h1.5c-1e-6 -4.2797-3.4703-7.75-7.75-7.75s-7.75 3.4703-7.75 7.75 3.4703 7.75 7.75 7.75h1.28e-4z" style="fill:#000000;fill-opacity:1;stroke:none" />
    <path transform="matrix(-1 0 0 1.011 196.85 -.18659)" d="m81.716 140.03c0-7.9133-1.25-39.566-1.25-39.566s-1.25 31.653-1.25 39.566 1.25 39.566 1.25 39.566 1.25-31.653 1.25-39.566z" style="stroke:none;fill:#000000;fill-opacity:1" />
    <path transform="matrix(0 -1 -1.011 0 257.95 221.85)" d="m81.716 140.03c0-7.9133-1.25-39.566-1.25-39.566s-1.25 31.653-1.25 39.566 1.25 39.566 1.25 39.566 1.25-31.653 1.25-39.566z" style="paint-order:markers fill stroke;fill:#000000;fill-opacity:1;stroke:none" />
    <path transform="matrix(3.0334 0 0 3.0334 -203.37 -209.13)" d="m106.72 99.685-0.0801 0.89846c-0.33654-0.022-0.65204-0.13662-0.99232-0.13662-3.5921 0-6.9002 1.2249-9.5292 3.2795h1.6966c2.2586-1.4504 4.9465-2.2913 7.8326-2.2913 4.343 0 8.3972 1.9395 11.12 5.1902 0.20573-0.12576 0.4306-0.23749 0.67324-0.33543 0.28015-0.11551 0.58229-0.20613 0.9063-0.27308-2.5536-3.4864-6.5369-5.8789-11.135-6.2868zm-11.5 4.8c-0.11152 0.10158-0.22164 0.20477-0.33015 0.30953v1.4111c0.5665-0.62571 1.1868-1.2016 1.8538-1.7206zm-1.0884 1.0945c-2.4725 2.7458-3.978 6.3791-3.978 10.361 0 8.5515 6.9425 15.494 15.494 15.494 1.3764 0 2.7463-0.183 4.0742-0.54497l0.47666-0.13083-0.20119-0.73832c2.3857-0.66817 4.5433-1.8849 6.3204-3.5071l-0.3029-1.0041c-2.6171 2.5733-6.2076 4.1598-10.172 4.1598-2.3102 0-4.5867-0.55184-6.6406-1.6095l-0.43952-0.22657-0.32419 0.62708c-4.3427-2.505-7.2969-7.1414-7.2969-12.52 0-3.3222 1.1142-6.382 2.9897-8.8263zm24.691 1.1238c-0.41292 0.0604-0.77725 0.15738-1.0935 0.2879a0.37915 0.37915 0 0 1-3e-3 8.5e-4c-0.17642 0.0711-0.33702 0.1487-0.48279 0.2322 0.45584 0.6066 0.86743 1.2534 1.229 1.9373l0.23049 0.43764 0.14139-0.0753c-0.0755-0.038-0.14702-0.0872-0.21141-0.15536-0.10025-0.10615-0.16729-0.26854-0.16729-0.41805 0-0.28956 0.21768-0.49356 0.42555-0.60443a0.37915 0.37915 0 0 1 9e-3 -4e-3c0.22056-0.11027 0.46431-0.14622 0.77768-0.15655-0.25813-0.51055-0.54374-1.0051-0.85502-1.4818zm1.1318 2.2366c-0.1221 0-0.12003 0.0157-0.21498 0.0239 0.0315 4e-3 0.0419 0.0112 0.0755 0.0148 0.0809 9e-3 0.16379 0.0183 0.24855 0.0286-0.01-0.0222-0.0194-0.0443-0.0291-0.0664-0.0269-5.7e-4 -0.0534-8.6e-4 -0.0799-8.6e-4zm-0.78431 0.69744c0.22992 0.54732 0.4332 1.1076 0.6034 1.6807 0.19486 0.0297 0.36564 0.0691 0.5189 0.12215 0.12216 0.0366 0.24276 0.0898 0.34651 0.19352 0.10557 0.10558 0.17478 0.27212 0.17478 0.42163 0 0.27659-0.21684 0.52027-0.44088 0.62623-0.08 0.0394-0.16157 0.068-0.24787 0.0888 0.0946 0.50699 0.16153 1.0233 0.19642 1.549 0.36524-0.0443 0.69216-0.11378 0.98091-0.20665-0.10085-1.4984-0.41574-2.942-0.91549-4.2986-0.23186-0.0327-0.44946-0.0598-0.65264-0.0816-0.21109-0.0226-0.39759-0.0529-0.56404-0.0952zm2.1652 5.2574c-0.30497 0.0846-0.63362 0.146-0.98619 0.18552 1.8e-4 0.0277 1.7e-4 0.0555 1.7e-4 0.0833 0 0.34925-0.0122 0.69562-0.0365 1.0387a0.37915 0.37915 0 0 1 0.31601-0.17002h0.68449c0.016-0.28744 0.0242-0.57703 0.0242-0.86864 0-0.0898-6.9e-4 -0.17936-2e-3 -0.26882zm-0.42981 1.8961-1.8133 5.6701 0.13987 0.46166c1.0782-1.8338 1.7862-3.9102 2.0202-6.1318zm-2.711 5.9887c-0.46221 0.74852-0.9906 1.4517-1.577 2.1015l0.31414 1.0414c0.17089-0.17402 0.33762-0.35203 0.50016-0.53389a0.37915 0.37915 0 0 1 1e-3 -0.22777zm0.49096 0.95349-0.0317 0.099c0.0143-0.0208 0.0285-0.0418 0.0428-0.0627z" stop-color="#000000" stroke-linecap="square" stroke-linejoin="round" stroke-miterlimit="1" style="stroke:none;stroke-opacity:1;fill:#000000;fill-opacity:1" />
    <path transform="matrix(.47482 0 0 .47482 -152.83 33.904)" d="m497.4 220.33v-67.079h31.336q15.428 0 23.478 6.8038 8.0495 6.8038 8.0495 18.495 0 7.762-3.7373 13.416-3.7373 5.558-10.637 8.5286-6.8038 2.9707-16.195 2.9707h-19.74l10.062-9.2953v26.161zm40.152 0-16.482-24.436h23.957l16.674 24.436zm-17.536-23.669-10.062-10.254h18.303q4.6956 0 6.8996-2.1082 2.2999-2.1082 2.2999-5.7497 0-3.6414-2.2999-5.7496-2.204-2.1082-6.8996-2.1082h-18.303l10.062-10.254zm76.914 24.628q-8.912 0-15.812-3.4498-6.8038-3.5456-10.733-9.6786-3.9289-6.133-3.9289-14.087 0-7.9537 3.9289-14.087 3.9289-6.133 10.733-9.5828 6.8996-3.4498 15.812-3.4498 8.912 0 15.812 3.4498 6.8996 3.4498 10.733 9.5828 3.9289 6.133 3.9289 14.087 0 7.9537-3.9289 14.087-3.8331 6.133-10.733 9.6786-6.8996 3.4498-15.812 3.4498zm0-16.866q2.3957 0 4.3122-1.1499 1.9166-1.1499 3.0665-3.4498 1.1499-2.3957 1.1499-5.7496 0-3.4498-1.1499-5.6538-1.1499-2.2999-3.0665-3.4498t-4.3122-1.1499-4.3122 1.1499q-1.9166 1.1499-3.0665 3.4498-1.1499 2.204-1.1499 5.6538 0 3.354 1.1499 5.7496 1.1499 2.2999 3.0665 3.4498t4.3122 1.1499zm58.898 16.866q-6.7079 0-13.224-1.4374-6.5163-1.4374-10.541-3.7373l5.9413-14.278q3.7373 2.204 8.6245 3.4498 4.983 1.2458 9.6786 1.2458 3.9289 0 5.2705-0.67079 1.4374-0.67079 1.4374-1.8207 0-1.1499-1.6291-1.6291-1.6291-0.57497-4.3122-0.86245-2.6832-0.28748-5.9413-0.6708-3.1623-0.47913-6.4204-1.3416-3.2581-0.86245-5.9413-2.5874-2.6832-1.7249-4.3122-4.5997-1.6291-2.9707-1.6291-7.4746 0-4.983 2.9707-9.0078 3.0665-4.0248 9.0078-6.4204 6.0371-2.4915 14.853-2.4915 5.7497 0 11.499 1.0541 5.7497 1.0541 9.8702 3.2581l-5.9413 14.278q-4.0248-2.204-7.9537-2.9707-3.8331-0.86244-7.1871-0.86244-4.1206 0-5.6538 0.76662-1.4374 0.76662-1.4374 1.7249 0 1.1499 1.6291 1.7249t4.3122 0.86245 5.8455 0.76662q3.2581 0.38331 6.4204 1.3416 3.2581 0.86245 5.9413 2.5874 2.6832 1.7249 4.3122 4.6956 1.6291 2.8748 1.6291 7.3787 0 4.6956-2.9707 8.8161-2.9706 4.0248-9.0078 6.5163-6.0371 2.3957-15.141 2.3957zm60.048 0q-10.829 0-16.866-5.1747-6.0371-5.2705-6.0371-16.099v-43.889h21.657v43.697q0 2.3957 1.2458 3.7373 1.3416 1.3416 3.2581 1.3416 2.779 0 4.8872-1.4374l5.1747 15.045q-2.4915 1.4374-6.0371 2.1082-3.4498 0.67079-7.2829 0.67079zm-30.09-37.564v-15.812h39.577v15.812zm77.489 37.564q-9.5828 0-16.77-3.5456-7.0912-3.5456-11.02-9.6786-3.9289-6.2288-3.9289-13.991 0-7.9537 3.8331-14.087 3.9289-6.133 10.637-9.5828 6.8038-3.4498 15.237-3.4498 7.762 0 14.278 3.0665 6.6121 3.0665 10.541 9.1036 4.0248 6.0371 4.0248 14.949 0 1.1499-0.0958 2.5873-0.0958 1.3416-0.19165 2.4915h-40.343v-10.445h28.844l-8.1454 2.779q0-3.0665-1.1499-5.1747-1.0541-2.204-2.9707-3.354-1.9166-1.2458-4.5997-1.2458t-4.6956 1.2458q-1.9166 1.1499-2.9707 3.354-1.0541 2.1082-1.0541 5.1747v3.2581q0 3.354 1.3416 5.7496 1.3416 2.3957 3.8331 3.6414 2.4915 1.1499 6.0371 1.1499 3.6414 0 5.9413-0.95827 2.3957-0.95828 4.983-2.8748l11.308 11.403q-3.8331 4.1206-9.4869 6.3246-5.558 2.1082-13.416 2.1082zm34.75-0.95827v-52.418h20.603v15.812l-3.354-4.5039q2.3957-6.133 7.6662-9.1994 5.2705-3.0665 12.649-3.0665v19.166q-1.4374-0.19165-2.5874-0.28748-1.0541-0.0958-2.204-0.0958-4.8872 0-8.0495 2.5874-3.0665 2.4915-3.0665 8.7203v23.286z" stop-color="#000000" stroke-linecap="square" stroke-linejoin="round" stroke-miterlimit="1" style="paint-order:stroke fill markers;white-space:pre;fill:#000000;fill-opacity:1;stroke:none" />
    <path transform="matrix(.47482 0 0 .47482 -115.24 71.233)" d="m514.36 220.33-21.465-67.079h23.286l17.345 56.634h-11.691l18.399-56.634h20.795l17.153 56.634h-11.212l18.111-56.634h21.465l-21.465 67.079h-24.244l-13.991-46.381h6.5163l-14.757 46.381zm121.47 0.95827q-8.912 0-15.812-3.4498-6.8038-3.5456-10.733-9.6786-3.9289-6.133-3.9289-14.087 0-7.9537 3.9289-14.087 3.9289-6.133 10.733-9.5828 6.8996-3.4498 15.812-3.4498 8.912 0 15.812 3.4498 6.8996 3.4498 10.733 9.5828 3.9289 6.133 3.9289 14.087 0 7.9537-3.9289 14.087-3.8331 6.133-10.733 9.6786-6.8996 3.4498-15.812 3.4498zm0-16.866q2.3957 0 4.3122-1.1499 1.9166-1.1499 3.0665-3.4498 1.1499-2.3957 1.1499-5.7496 0-3.4498-1.1499-5.6538-1.1499-2.2999-3.0665-3.4498t-4.3122-1.1499-4.3122 1.1499-3.0665 3.4498q-1.1499 2.204-1.1499 5.6538 0 3.354 1.1499 5.7496 1.1499 2.2999 3.0665 3.4498t4.3122 1.1499zm38.391 15.907v-52.418h20.603v15.812l-3.354-4.5039q2.3957-6.133 7.6662-9.1994 5.2705-3.0665 12.649-3.0665v19.166q-1.4374-0.19165-2.5873-0.28748-1.0541-0.0958-2.204-0.0958-4.8872 0-8.0495 2.5874-3.0665 2.4915-3.0665 8.7203v23.286zm62.923-8.6245 0.47914-25.49 18.111-18.303h25.586l-23.957 25.107-10.829 8.7203zm-18.111 8.6245v-71.104h21.657v71.104zm37.852 0-14.374-18.207 13.32-16.387 27.215 34.594z" stop-color="#000000" stroke-linecap="square" stroke-linejoin="round" stroke-miterlimit="1" style="paint-order:stroke fill markers;white-space:pre;fill:#000000;fill-opacity:1;stroke:none" />
  </g>
</svg>

