<?xml version="1.0" encoding="UTF-8" standalone="no"?>
<svg
   width="20"
   height="20"
   viewBox="880 360 240 260"
   version="1.1"
   id="svg11"
   xml:space="preserve"
   xmlns="http://www.w3.org/2000/svg"
   xmlns:svg="http://www.w3.org/2000/svg"><defs
     id="defs11"><filter
       id="mask-powermask-path-effect34_inverse"
       style="color-interpolation-filters:sRGB"
       height="100"
       width="100"
       x="-50"
       y="-50"><feColorMatrix
         id="mask-powermask-path-effect34_primitive1"
         values="1"
         type="saturate"
         result="fbSourceGraphic" /><feColorMatrix
         id="mask-powermask-path-effect34_primitive2"
         values="-1 0 0 0 1 0 -1 0 0 1 0 0 -1 0 1 0 0 0 1 0 "
         in="fbSourceGraphic" /></filter></defs><path
     id="path50"
     style="baseline-shift:baseline;display:inline;overflow:visible;opacity:1;vector-effect:none;fill:#000000;fill-opacity:1;stroke-linecap:round;stroke-miterlimit:30.6;enable-background:accumulate;stop-color:#000000;stop-opacity:1;stroke:none;stroke-opacity:1"
     d="m 980.71905,397.23137 c -44.01677,10.22216 -77.45733,49.9175 -77.45733,97.00886 0,9.58232 1.77716,20.07131 4.3164,28.84375 2.17411,-4.41047 5.38469,-8.23228 9.31836,-11.12109 -1.0151,-5.346 -1.95507,-12.0771 -1.95507,-17.72266 0,-43.06272 31.48143,-78.9408 72.35381,-86.42097 l 3.96094,-4.72266 z m 119.47675,77.66196 -11.9336,0.0508 c 1.3274,6.0769 2.103,12.81625 2.103,19.29612 0,38.7166 -25.9801,71.92498 -60.7241,83.58519 l -4.8496,7.56641 8.5566,3.5039 c 39.333,-13.25335 68.7222,-50.89828 68.7222,-94.6555 0,-11.03303 -1.8745,-18.92279 -1.8745,-19.34692 z" /><path
     id="path51"
     style="display:inline;fill:none;stroke:#000000;stroke-width:11.7;stroke-linecap:round;stroke-miterlimit:30.6"
     d="m 1086.4848,402.73346 a 24.419115,24.419115 0 0 1 -24.4191,24.41911 24.419115,24.419115 0 0 1 -24.4191,-24.41911 24.419115,24.419115 0 0 1 24.4191,-24.41912 24.419115,24.419115 0 0 1 24.4191,24.41912 z" /><path
     id="path52"
     style="display:inline;fill:none;stroke:#000000;stroke-width:11.7;stroke-linecap:round;stroke-miterlimit:30.6;stroke-opacity:1"
     d="m 1109.9647,469.41641 -49.3078,0.23479 -46.0207,0.2348 c -3.3537,-1.50109 4.6158,-41.72554 46.4903,-42.02905 44.7794,-0.32456 50.3664,41.64936 48.8382,41.55946 z" /><path
     id="circle53"
     style="display:inline;fill:none;stroke:#000000;stroke-width:11.7;stroke-linecap:round;stroke-miterlimit:30.6"
     d="m 958.75401,535.16022 a 24.419115,24.419115 0 0 1 -24.41911,24.41911 24.419115,24.419115 0 0 1 -24.41912,-24.41911 24.419115,24.419115 0 0 1 24.41912,-24.41912 24.419115,24.419115 0 0 1 24.41911,24.41912 z" /><path
     id="path53"
     style="display:inline;fill:none;stroke:#000000;stroke-width:11.7;stroke-linecap:round;stroke-miterlimit:30.6;stroke-opacity:1"
     d="m 982.23394,601.84315 -49.3078,0.23479 -46.0207,0.2348 c -3.3537,-1.50109 4.6158,-41.72554 46.4903,-42.02905 44.7794,-0.32456 50.3664,41.64936 48.8382,41.55946 z" /><path
     style="display:inline;fill:none;fill-opacity:1;stroke:#000000;stroke-width:11.7;stroke-linecap:round;stroke-linejoin:miter;stroke-miterlimit:30.6;stroke-dasharray:none;stroke-opacity:1;paint-order:normal"
     d="m 970.48916,385.31314 29.23739,16.24632 -21.99055,26.19679"
     id="path54" /><path
     style="display:inline;fill:none;fill-opacity:1;stroke:#000000;stroke-width:11.7;stroke-linecap:round;stroke-linejoin:miter;stroke-miterlimit:30.6;stroke-dasharray:none;stroke-opacity:1;paint-order:normal"
     d="m 1035.4747,559.03922 -18.3931,28.68995 30.9247,12.63643"
     id="path55" /></svg>
